<svg xmlns="http://www.w3.org/2000/svg" version="1.1" xmlns:xlink="http://www.w3.org/1999/xlink" xmlns:svgjs="http://svgjs.com/svgjs" width="60" height="60" x="0" y="0" viewBox="0 0 55 55" style="enable-background:new 0 0 512 512" xml:space="preserve" class=""><g><g id="_x38_1"><g fill="#1d2943"><path d="m22.9719009 15.7146931c.2427063-.1325312.5843582-.110013.789978.0099487.2397938.1308088.2401066.3690205 0 .5-.2238407.1305943-.5854321.1327629-.789978.0100098-.2524471-.1261597-.2526512-.3936968 0-.5199585z" fill="#1d2943" data-original="#1d2943"></path><path d="m24.2566261 16.4597111c.2427044-.1325302.5843563-.110014.789978.0099487.2397919.1308079.2401047.3690205 0 .5-.2238426.1305943-.5854321.1327629-.789978.0100098-.2524471-.1261597-.2526531-.3936959 0-.5199585z" fill="#1d2943" data-original="#1d2943"></path><path d="m25.5413494 17.2047291c.2427044-.1325302.5843582-.110014.789978.0099487.2397919.1308079.2401047.3690205 0 .5-.2238426.1305923-.5854321.1327629-.789978.0100098-.2524471-.1261597-.2526512-.3936978 0-.5199585z" fill="#1d2943" data-original="#1d2943"></path><path d="m26.8260727 17.9497471c.2427044-.1325321.5843582-.110014.789978.0099487.2397919.1308079.2401066.3690205 0 .5-.2238407.1305923-.5854321.1327629-.789978.0100098-.2524471-.1261597-.2526512-.3936978 0-.5199585z" fill="#1d2943" data-original="#1d2943"></path><path d="m28.110796 18.6947651c.2427044-.1325321.5843582-.110014.789978.0099487.2397938.1308079.2401066.3690205 0 .5-.2238407.1305923-.5854321.1327629-.789978.0100098-.2524472-.1261597-.2526512-.3936978 0-.5199585z" fill="#1d2943" data-original="#1d2943"></path><path d="m29.3955193 19.4397831c.2427044-.1325321.5843582-.110014.789978.0099487.2397938.1308079.2401066.3690205 0 .5-.2238407.1305923-.5854321.1327629-.789978.0100098-.2524472-.1261597-.2526513-.3936977 0-.5199585z" fill="#1d2943" data-original="#1d2943"></path><path d="m30.6802425 20.1848011c.2427063-.1325321.5843582-.110014.789978.0099487.2397938.1308079.2401066.3690205 0 .5-.2238407.1305923-.5854301.1327629-.789978.0100098-.2524452-.1261597-.2526512-.3936977 0-.5199585z" fill="#1d2943" data-original="#1d2943"></path></g><g><g><g><g><path d="m45.7872887 23.6457348-19.6775494-11.4353027-22.6097417 13.0537109.0133057 5.1365356 19.6776128 11.4353619-.0133057-5.1365967z" fill="#1d2943" data-original="#1d2943"></path><g><g enable-background="new"><g><path d="m3.5000024 25.2641239.0133016 5.1365738 19.6775663 11.4353504-.0133019-5.1365738z" fill="#1d2943" data-original="#1d2943"></path></g><g><path d="m23.1775684 36.6994743.0133019 4.6919022 22.6097088-13.0537224-.0133019-4.6919021z" fill="#31323d" data-original="#31323d"></path></g><g><path d="m3.5000024 25.2641239 19.677566 11.4353504 22.6097088-13.0537223-19.6775665-11.4353495z" fill="#4c5c75" data-original="#4c5c75" class=""></path></g></g></g><path d="m51.4850426 23.354414-2.9821167-1.7137451-27.072691 15.5761699.0149536 5.2783814.5065918.2943725 26.5582867-15.2791729 2.4755249 1.4193726.5144043-.2969971z" fill="#9ea9c9" data-original="#9ea9c9" class=""></path><g><g enable-background="new"><g><path d="m48.49506 22.2320538.014965 5.2783889 2.4755287 1.4193726-.014965-5.278389z" fill="#9ea9c9" data-original="#9ea9c9" class=""></path></g><g><path d="m50.9705887 23.6514263.014965 5.278389.5144501-.2970181-.014965-5.2783889z" fill="#b0b8cf" data-original="#b0b8cf" class=""></path></g><g><path d="m21.9367809 37.5112076.0149632 5.278389 26.5582809-15.2791539-.014965-5.2783889z" fill="#b0b8cf" data-original="#b0b8cf" class=""></path></g><g><path d="m21.4302101 37.2168236.0149632 5.2783851.5065708.2943879-.0149632-5.278389z" fill="#9ea9c9" data-original="#9ea9c9" class=""></path></g><g><path d="m21.4302101 37.2168236.5065708.294384 26.5582791-15.2791538 2.4755287 1.4193725.5144501-.297018-2.9821015-1.7137585z" fill="#e3e7f0" data-original="#e3e7f0"></path></g></g></g><g><g><path d="m46.8353157 26.9754963-.0059738-2.3274422.3768616-.2181606.0072021 2.8347263z" fill="#9ea9c9" data-original="#9ea9c9" class=""></path><path d="m46.8353157 26.9754963.3780899.2891235-2.4606285 1.4173432-.0012321-.5061875z" fill="#e3e7f0" data-original="#e3e7f0"></path></g><path d="m46.8293419 24.6480541.0059738 2.3274422-2.0837707 1.2002792-.00597-2.3213386z" fill="#111d33" data-original="#111d33"></path></g><g><g><path d="m42.6539001 29.3929157-.00597-2.3274421.3768616-.2181607.0072022 2.8347283z" fill="#9ea9c9" data-original="#9ea9c9" class=""></path><path d="m42.6539001 29.3929157.3780938.2891255-2.4606324 1.4173412-.0012283-.5061874z" fill="#e3e7f0" data-original="#e3e7f0"></path></g><path d="m42.6479301 27.0654736.00597 2.3274421-2.0837669 1.2002793-.00597-2.3213387z" fill="#111d33" data-original="#111d33"></path></g><g><g><path d="m38.4724884 31.8103371-.00597-2.3274422.3768616-.2181606.0072021 2.8347263z" fill="#9ea9c9" data-original="#9ea9c9" class=""></path><path d="m38.4724884 31.8103371.3780937.2891235-2.4606323 1.4173431-.0012283-.5061874z" fill="#e3e7f0" data-original="#e3e7f0"></path></g><path d="m38.4665184 29.4828949.00597 2.3274422-2.0837669 1.2002792-.0059738-2.3213387z" fill="#111d33" data-original="#111d33"></path></g><g><g><path d="m34.2910767 34.2277565-.0059739-2.3274422.3768654-.2181606.0072022 2.8347263z" fill="#9ea9c9" data-original="#9ea9c9" class=""></path><path d="m34.2910767 34.2277565.3780937.2891235-2.4606323 1.4173432-.0012284-.5061875z" fill="#e3e7f0" data-original="#e3e7f0"></path></g><path d="m34.2851028 31.9003143.0059739 2.3274422-2.083767 1.2002792-.0059738-2.3213386z" fill="#111d33" data-original="#111d33"></path></g><g><g><path d="m30.1096649 36.6451759-.0059719-2.3274421.3768616-.2181588.0072021 2.8347283z" fill="#9ea9c9" data-original="#9ea9c9" class=""></path><path d="m30.1096649 36.6451759.3780918.2891274-2.4606304 1.4173393-.0012302-.5061874z" fill="#e3e7f0" data-original="#e3e7f0"></path></g><path d="m30.103693 34.3177338.0059719 2.3274421-2.0837688 1.2002793-.0059719-2.3213387z" fill="#111d33" data-original="#111d33"></path></g><g><g><path d="m25.9282513 39.0625992-.0059719-2.3274422.3768634-.2181625.0072022 2.8347282z" fill="#9ea9c9" data-original="#9ea9c9" class=""></path><path d="m25.9282513 39.0625992.3780937.2891235-2.4606304 1.4173393-.0012303-.5061874z" fill="#e3e7f0" data-original="#e3e7f0"></path></g><g fill="#111d33"><path d="m25.9222794 36.735157.0059719 2.3274422-2.083767 1.2002754-.0059719-2.3213348z" fill="#111d33" data-original="#111d33"></path><path d="m25.9222794 36.735157.0059719 2.3274422-2.083767 1.2002754-.0059719-2.3213348z" fill="#111d33" data-original="#111d33"></path></g></g></g></g><g><g fill="#1d2943"><g><path d="m24.411375 14.8660717c.2427044-.1325312.5843582-.110014.789978.0099487.2397919.1308079.2401047.3690205 0 .5-.2238426.1305933-.5854321.132762-.789978.0100098-.2524471-.1261597-.2526512-.3936968 0-.5199585z" fill="#000000" data-original="#000000"></path><path d="m27.1413555 14.7860546c.2199707-.1400146.5599976-.1400146.789978 0 .2332287.1166153.2475128.3649807 0 .5-.2023125.1287737-.5634918.1339159-.7699585.0100098-.2205467-.118763-.2768287-.3559866-.0200195-.5100098z" fill="#000000" data-original="#000000"></path><path d="m28.4262714 15.5372992c.2199707-.1400146.5599976-.1400146.789978 0 .2332287.1166143.2475128.3649797 0 .499999-.2023125.1287746-.5634918.1339169-.7699585.0100098-.2205467-.118763-.2768306-.3559857-.0200195-.5100088z" fill="#000000" data-original="#000000"></path><path d="m29.7111855 16.2885437c.2199707-.1400146.5599976-.1400146.789978 0 .2332306.1166153.2475128.3649807 0 .5-.2023106.1287727-.5634899.1339149-.7699585.0100098-.2205448-.118763-.2768288-.3559876-.0200195-.5100098z" fill="#000000" data-original="#000000"></path><path d="m30.9961014 17.0397873c.2199707-.1400146.5599976-.1400146.789978 0 .2332306.1166153.2475128.3649807 0 .5-.2023106.1287746-.5634899.1339149-.7699585.0100098-.2205448-.118763-.2768288-.3559876-.0200195-.5100098z" fill="#000000" data-original="#000000"></path><path d="m32.2810173 17.7910309c.2199707-.1400146.5599976-.1400146.789978 0 .2332306.1166153.2475128.3649807 0 .5-.2023125.1287746-.5634918.1339169-.7699585.0100098-.2205467-.118763-.2768287-.3559857-.0200195-.5100098z" fill="#000000" data-original="#000000"></path></g><path d="m25.6960983 15.6110897c.2427044-.1325312.5843582-.110014.789978.0099487.2397919.1308079.2401066.3690205 0 .5-.2238407.1305923-.5854321.1327629-.789978.0100098-.2524471-.1261597-.2526512-.3936977 0-.5199585z" fill="#1d2943" data-original="#1d2943"></path><path d="m26.9808216 16.3561077c.2427044-.1325321.5843582-.110014.789978.0099487.2397938.1308079.2401066.3690205 0 .5-.2238407.1305923-.5854321.1327629-.789978.0100098-.2524471-.1261597-.2526512-.3936977 0-.5199585z" fill="#1d2943" data-original="#1d2943"></path><path d="m28.2655449 17.1011257c.2427044-.1325321.5843582-.110014.789978.0099487.2397938.1308079.2401066.3690205 0 .5-.2238407.1305923-.5854321.1327629-.789978.0100098-.2524471-.1261597-.2526512-.3936977 0-.5199585z" fill="#1d2943" data-original="#1d2943"></path><path d="m29.5502682 17.8461437c.2427063-.1325321.5843582-.110014.789978.0099487.2397938.1308079.2401066.3690205 0 .5-.2238407.1305923-.5854301.132761-.789978.0100098-.2524452-.1261596-.2526512-.3936977 0-.5199585z" fill="#1d2943" data-original="#1d2943"></path><path d="m30.8349934 18.5911617c.2427044-.1325321.5843582-.110014.789978.0099487.2397919.1308079.2401047.3690205 0 .5-.2238426.1305923-.5854321.132761-.789978.0100098-.2524472-.1261596-.2526513-.3936977 0-.5199585z" fill="#1d2943" data-original="#1d2943"></path><path d="m32.1197166 19.3361797c.2427063-.1325321.5843582-.110014.789978.0099487.2397919.1308079.2401047.3690205 0 .5-.2238426.1305923-.585434.132761-.789978.0100098-.2524471-.1261596-.2526512-.3936977 0-.5199585z" fill="#1d2943" data-original="#1d2943"></path><path d="m22.9719009 15.7146931c.2427063-.1325312.5843582-.110013.789978.0099487.2397938.1308088.2401066.3690205 0 .5-.2238407.1305943-.5854321.1327629-.789978.0100098-.2524471-.1261597-.2526512-.3936968 0-.5199585z" fill="#1d2943" data-original="#1d2943"></path><path d="m24.2566261 16.4597111c.2427044-.1325302.5843563-.110014.789978.0099487.2397919.1308079.2401047.3690205 0 .5-.2238426.1305943-.5854321.1327629-.789978.0100098-.2524471-.1261597-.2526531-.3936959 0-.5199585z" fill="#1d2943" data-original="#1d2943"></path><path d="m25.5413494 17.2047291c.2427044-.1325302.5843582-.110014.789978.0099487.2397919.1308079.2401047.3690205 0 .5-.2238426.1305923-.5854321.1327629-.789978.0100098-.2524471-.1261597-.2526512-.3936978 0-.5199585z" fill="#1d2943" data-original="#1d2943"></path><path d="m26.8260727 17.9497471c.2427044-.1325321.5843582-.110014.789978.0099487.2397919.1308079.2401066.3690205 0 .5-.2238407.1305923-.5854321.1327629-.789978.0100098-.2524471-.1261597-.2526512-.3936978 0-.5199585z" fill="#1d2943" data-original="#1d2943"></path><path d="m28.110796 18.6947651c.2427044-.1325321.5843582-.110014.789978.0099487.2397938.1308079.2401066.3690205 0 .5-.2238407.1305923-.5854321.1327629-.789978.0100098-.2524472-.1261597-.2526512-.3936978 0-.5199585z" fill="#1d2943" data-original="#1d2943"></path><path d="m29.3955193 19.4397831c.2427044-.1325321.5843582-.110014.789978.0099487.2397938.1308079.2401066.3690205 0 .5-.2238407.1305923-.5854321.1327629-.789978.0100098-.2524472-.1261597-.2526513-.3936977 0-.5199585z" fill="#1d2943" data-original="#1d2943"></path><path d="m30.6802425 20.1848011c.2427063-.1325321.5843582-.110014.789978.0099487.2397938.1308079.2401066.3690205 0 .5-.2238407.1305923-.5854301.1327629-.789978.0100098-.2524452-.1261597-.2526512-.3936977 0-.5199585z" fill="#1d2943" data-original="#1d2943"></path><path d="m21.5324287 16.5633144c.2427044-.1325302.5843582-.1100121.789978.0099487.2397919.1308098.2401066.3690224 0 .5-.2238407.1305943-.5854321.1327629-.789978.0100098-.2524471-.1261577-.2526512-.3936958 0-.5199585z" fill="#1d2943" data-original="#1d2943"></path><path d="m22.817152 17.3083324c.2427044-.1325302.5843582-.1100121.789978.0099487.2397938.1308098.2401066.3690224 0 .5-.2238407.1305943-.5854321.1327629-.789978.0100098-.2524471-.1261577-.2526512-.3936958 0-.5199585z" fill="#1d2943" data-original="#1d2943"></path><path d="m24.1018753 18.0533504c.2427063-.1325302.5843582-.1100121.789978.0099487.2397938.1308098.2401066.3690224 0 .5-.2238407.1305943-.5854321.1327629-.789978.0100098-.2524471-.1261577-.2526512-.3936958 0-.5199585z" fill="#1d2943" data-original="#1d2943"></path><path d="m25.3866005 18.7983685c.2427044-.1325302.5843563-.110014.789978.0099487.2397919.1308079.2401047.3690224 0 .5-.2238426.1305943-.5854321.1327629-.789978.0100098-.2524471-.1261578-.2526531-.3936959 0-.5199585z" fill="#1d2943" data-original="#1d2943"></path><path d="m26.6713238 19.5433865c.2427044-.1325302.5843582-.110014.789978.0099487.2397919.1308079.2401047.3690224 0 .5-.2238426.1305943-.5854321.1327629-.789978.0100098-.2524472-.1261597-.2526512-.3936959 0-.5199585z" fill="#1d2943" data-original="#1d2943"></path><path d="m27.9560471 20.2884045c.2427044-.1325302.5843582-.110014.789978.0099487.2397919.1308079.2401066.3690205 0 .5-.2238407.1305943-.5854321.1327629-.789978.0100098-.2524472-.1261597-.2526513-.3936959 0-.5199585z" fill="#1d2943" data-original="#1d2943"></path><path d="m29.2407703 21.0334225c.2427044-.1325302.5843582-.110014.789978.0099487.2397938.1308079.2401066.3690205 0 .5-.2238407.1305943-.5854321.1327629-.789978.0100098-.2524471-.1261597-.2526512-.3936978 0-.5199585z" fill="#1d2943" data-original="#1d2943"></path><path d="m20.0929565 17.4119377c.2427044-.1325321.5843582-.110014.789978.0099487.2397919.1308079.2401047.3690205 0 .5-.2238426.1305923-.5854321.1327629-.789978.0100098-.2524471-.1261597-.2526512-.3936977 0-.5199585z" fill="#1d2943" data-original="#1d2943"></path><path d="m21.3776798 18.1569557c.2427044-.1325321.5843582-.110014.789978.0099487.2397919.1308079.2401047.3690205 0 .5-.2238426.1305923-.5854321.132761-.789978.0100098-.2524471-.1261597-.2526512-.3936977 0-.5199585z" fill="#1d2943" data-original="#1d2943"></path><path d="m22.6624031 18.9019737c.2427044-.1325321.5843582-.110014.789978.0099487.2397919.1308079.2401066.3690205 0 .5-.2238407.1305923-.5854321.132761-.789978.0100098-.2524471-.1261596-.2526512-.3936977 0-.5199585z" fill="#1d2943" data-original="#1d2943"></path><path d="m23.9471264 19.6469917c.2427044-.1325321.5843582-.110014.789978.0099487.2397938.1308079.2401066.3690205 0 .5-.2238407.1305923-.5854321.132761-.789978.0100098-.2524471-.1261596-.2526512-.3936977 0-.5199585z" fill="#1d2943" data-original="#1d2943"></path><path d="m25.2318497 20.3920097c.2427063-.1325321.5843582-.110014.789978.0099487.2397938.1308079.2401066.3690205 0 .5-.2238407.1305923-.5854321.132761-.789978.0100098-.2524472-.1261596-.2526512-.3936977 0-.5199585z" fill="#1d2943" data-original="#1d2943"></path><path d="m26.5165749 21.1370258c.2427044-.1325302.5843563-.1100121.789978.0099487.2397919.1308098.2401047.3690224 0 .5-.2238426.1305943-.5854321.1327629-.789978.0100098-.2524472-.1261577-.2526532-.3936958 0-.5199585z" fill="#1d2943" data-original="#1d2943"></path><path d="m19.9382057 19.0055771c.2427063-.1325321.5843582-.110014.789978.0099487.2397938.1308079.2401066.3690205 0 .5-.2238407.1305923-.5854301.1327629-.789978.0100098-.2524452-.1261597-.2526512-.3936978 0-.5199585z" fill="#1d2943" data-original="#1d2943"></path><path d="m21.2229309 19.7505951c.2427044-.1325321.5843582-.110014.789978.0099487.2397919.1308079.2401047.3690205 0 .5-.2238426.1305923-.5854321.1327629-.789978.0100098-.2524471-.1261597-.2526512-.3936977 0-.5199585z" fill="#1d2943" data-original="#1d2943"></path><path d="m22.5076542 20.4956131c.2427044-.1325321.5843582-.110014.789978.0099487.2397919.1308079.2401047.3690205 0 .5-.2238426.1305923-.5854321.1327629-.789978.0100098-.2524471-.1261597-.2526512-.3936977 0-.5199585z" fill="#1d2943" data-original="#1d2943"></path><path d="m23.7923775 21.2406311c.2427044-.1325321.5843582-.110014.789978.0099487.2397919.1308079.2401066.3690205 0 .5-.2238407.1305923-.5854321.1327629-.789978.0100098-.2524472-.1261597-.2526512-.3936977 0-.5199585z" fill="#1d2943" data-original="#1d2943"></path><path d="m25.0771008 21.9856491c.2427044-.1325321.5843582-.110014.789978.0099487.2397938.1308079.2401066.3690205 0 .5-.2238407.1305923-.5854321.1327629-.789978.0100098-.2524472-.1261597-.2526513-.3936977 0-.5199585z" fill="#1d2943" data-original="#1d2943"></path><path d="m27.8012981 21.8820438c.2427044-.1325302.5843582-.1100121.789978.0099487.2397919.1308098.2401047.3690224 0 .5-.2238426.1305943-.5854321.1327629-.789978.0100098-.2524471-.1261577-.2526512-.3936958 0-.5199585z" fill="#1d2943" data-original="#1d2943"></path></g></g></g><g><g><path d="m14.2304211 32.5412254-.0083504 2.9453736 1.7303276.9990043.0083504-2.9453735z" fill="#9ea9c9" data-original="#9ea9c9" class=""></path></g><g><path d="m10.9202204 30.6300793-.0083504 2.9453754 1.7303276.9990044.0083494-2.9453736z" fill="#ffd06c" data-original="#ffd06c"></path></g><g><path d="m7.6100187 28.718935-.0083499 2.9453735 1.7303367.9990101.0083494-2.9453735z" fill="#9ea9c9" data-original="#9ea9c9" class=""></path></g><g><path d="m4.2998266 26.8077946-.0083499 2.9453735 1.7303272.9990044.0083503-2.9453736z" fill="#ffd06c" data-original="#ffd06c"></path></g></g></g></g></g></svg>