<svg xmlns="http://www.w3.org/2000/svg" xmlns:xlink="http://www.w3.org/1999/xlink" viewBox="0 0 395.52 113.65713269230385" height="75px" width="125px">
   <g>
      <svg viewBox="0 0 585.6763131898291 168.3006938788322" height="113.65713269230385" width="395.52">
         <g transform="matrix(1,0,0,1,190.15631318982912,2.9633262549818653)">
            <svg viewBox="0 0 395.52 162.37404136886846" height="162.37404136886846" width="395.52">
               <g>
                  <svg viewBox="0 0 395.52 162.37404136886846" height="162.37404136886846" width="395.52">
                     <g>
                        <svg viewBox="0 0 395.52 101.52385026737967" height="101.52385026737967" width="395.52">
                           <g transform="matrix(1,0,0,1,0,0)">
                              <svg width="395.52" viewBox="3.5 -35.5 140.24000549316406 36" height="101.52385026737967" data-palette-color="#ffffff">
                                 <path d="M8 0L3.5 0 3.5-35 8.5-35 18.75-10.25 19-10.25 19-35 23.5-35 23.5 0 18.5 0 8.25-24.75 8-24.75 8 0ZM47.5 0L30.5 0 30.5-35 47.5-35 47.5-31.5 35-31.5 35-20 46-20 46-16.5 35-16.5 35-3.5 47.5-3.5 47.5 0ZM62.5 0L58 0 58-31.5 50-31.5 50-35 70.5-35 70.5-31.5 62.5-31.5 62.5 0ZM82.49 0.5L82.49 0.5Q80.24 0.5 78.32 0.28 76.39 0.05 74.49-0.5L74.49-0.5 74.49-34.5Q76.39-35.05 78.32-35.27 80.24-35.5 82.49-35.5L82.49-35.5Q87.74-35.5 90.12-33.23 92.49-30.95 92.49-26.25L92.49-26.25Q92.49-24 91.62-22.05 90.74-20.1 88.49-18.85L88.49-18.85 88.49-18.65Q91.49-17.8 92.74-15.35 93.99-12.9 93.99-9.5L93.99-9.5Q93.99-4.25 91.44-1.88 88.89 0.5 82.49 0.5ZM78.99-16.75L78.99-2.75 82.49-2.75Q86.24-2.75 87.87-4.33 89.49-5.9 89.49-9.5L89.49-9.5Q89.49-13.45 87.87-15.1 86.24-16.75 82.49-16.75L82.49-16.75 78.99-16.75ZM78.99-32.25L78.99-20 81.99-20Q84.99-20 86.49-21.53 87.99-23.05 87.99-26.25L87.99-26.25Q87.99-29.25 86.49-30.75 84.99-32.25 81.99-32.25L81.99-32.25 78.99-32.25ZM109.24 0.5L109.24 0.5Q105.89 0.5 103.47-1.07 101.04-2.65 99.77-6.58 98.49-10.5 98.49-17.5L98.49-17.5Q98.49-24.5 99.77-28.43 101.04-32.35 103.47-33.93 105.89-35.5 109.24-35.5L109.24-35.5Q112.64-35.5 115.04-33.93 117.44-32.35 118.72-28.43 119.99-24.5 119.99-17.5L119.99-17.5Q119.99-10.5 118.72-6.58 117.44-2.65 115.04-1.07 112.64 0.5 109.24 0.5ZM109.24-2.5L109.24-2.5Q110.44-2.5 111.57-3.18 112.69-3.85 113.59-5.5 114.49-7.15 114.99-10.08 115.49-13 115.49-17.5L115.49-17.5Q115.49-22 114.99-24.93 114.49-27.85 113.59-29.5 112.69-31.15 111.57-31.83 110.44-32.5 109.24-32.5L109.24-32.5Q108.04-32.5 106.92-31.83 105.79-31.15 104.89-29.5 103.99-27.85 103.49-24.93 102.99-22 102.99-17.5L102.99-17.5Q102.99-13 103.49-10.08 103.99-7.15 104.89-5.5 105.79-3.85 106.92-3.18 108.04-2.5 109.24-2.5ZM126.74 0L122.24 0 129.74-18 122.99-35 127.49-35 132.99-21 138.49-35 142.99-35 136.24-18 143.74 0 139.24 0 132.99-15 126.74 0Z" opacity="1" transform="matrix(1,0,0,1,0,0)" fill="#ffffff" class="undefined-text-0" data-fill-palette-color="primary" id="text-0"></path>
                              </svg>
                           </g>
                        </svg>
                     </g>
                     <g transform="matrix(1,0,0,1,0,125.4911947431016)">
                        <svg viewBox="0 0 375.74399999999997 36.88284662576687" height="36.88284662576687" width="375.74399999999997">
                           <g transform="matrix(1,0,0,1,0,0)">
                              <svg width="375.74399999999997" viewBox="3.5 -35.5 366.7099914550781 36" height="36.88284662576687" data-palette-color="#ffffff">
                                 <path d="M8 0L3.5 0 3.5-35 8-35 8 0ZM20.75 0.5L20.75 0.5Q18.5 0.5 16.45 0.18 14.4-0.15 13.25-0.5L13.25-0.5 13.25-2.75 19.75-2.75Q24.05-2.75 25.77-4.28 27.5-5.8 27.5-9L27.5-9Q27.5-11.2 26.47-12.48 25.45-13.75 23.82-14.6 22.2-15.45 20.37-16.25 18.55-17.05 16.92-18.23 15.3-19.4 14.27-21.35 13.25-23.3 13.25-26.5L13.25-26.5Q13.25-31 15.57-33.25 17.9-35.5 22.75-35.5L22.75-35.5Q25-35.5 27.07-35.2 29.15-34.9 30.25-34.5L30.25-34.5 30.25-32.25 23.75-32.25Q20.75-32.25 19.25-30.78 17.75-29.3 17.75-26.5L17.75-26.5Q17.75-24.2 18.77-22.83 19.8-21.45 21.42-20.58 23.05-19.7 24.87-18.88 26.7-18.05 28.32-16.93 29.95-15.8 30.97-13.93 32-12.05 32-9L32-9Q32-4.15 29.47-1.83 26.95 0.5 20.75 0.5ZM41.75 0L37.25 0 37.25-34.5Q39.15-35.05 41.07-35.27 43-35.5 45.25-35.5L45.25-35.5Q49.25-35.5 51.67-34.35 54.1-33.2 55.17-30.48 56.25-27.75 56.25-23L56.25-23Q56.25-18.15 55.22-15.35 54.2-12.55 52.1-11.4 50-10.25 46.75-10.25L46.75-10.25Q45.65-10.25 44.17-10.4 42.7-10.55 41.75-10.75L41.75-10.75 41.75 0ZM41.75-32.25L41.75-13.75 45.25-13.75Q47.5-13.75 48.95-14.55 50.4-15.35 51.07-17.38 51.75-19.4 51.75-23L51.75-23Q51.75-26.65 51.07-28.65 50.4-30.65 48.95-31.45 47.5-32.25 45.25-32.25L45.25-32.25 41.75-32.25ZM84.24 0.5L84.24 0.5Q80.74 0.5 78.29-1.07 75.84-2.65 74.54-6.58 73.24-10.5 73.24-17.5L73.24-17.5Q73.24-24.5 74.52-28.43 75.79-32.35 78.14-33.93 80.49-35.5 83.74-35.5L83.74-35.5Q85.99-35.5 88.07-35.2 90.14-34.9 91.24-34.5L91.24-34.5 91.24-32.25 84.74-32.25Q82.74-32.25 81.17-31 79.59-29.75 78.67-26.58 77.74-23.4 77.74-17.5L77.74-17.5Q77.74-11.65 78.69-8.45 79.64-5.25 81.32-4 82.99-2.75 85.24-2.75L85.24-2.75 91.74-2.75 91.74-0.5Q90.64-0.15 88.57 0.18 86.49 0.5 84.24 0.5ZM104.74 0.5L104.74 0.5Q101.39 0.5 98.96-1.07 96.54-2.65 95.26-6.58 93.99-10.5 93.99-17.5L93.99-17.5Q93.99-24.5 95.26-28.43 96.54-32.35 98.96-33.93 101.39-35.5 104.74-35.5L104.74-35.5Q108.14-35.5 110.54-33.93 112.94-32.35 114.21-28.43 115.49-24.5 115.49-17.5L115.49-17.5Q115.49-10.5 114.21-6.58 112.94-2.65 110.54-1.07 108.14 0.5 104.74 0.5ZM104.74-2.5L104.74-2.5Q105.94-2.5 107.06-3.18 108.19-3.85 109.09-5.5 109.99-7.15 110.49-10.08 110.99-13 110.99-17.5L110.99-17.5Q110.99-22 110.49-24.93 109.99-27.85 109.09-29.5 108.19-31.15 107.06-31.83 105.94-32.5 104.74-32.5L104.74-32.5Q103.54-32.5 102.41-31.83 101.29-31.15 100.39-29.5 99.49-27.85 98.99-24.93 98.49-22 98.49-17.5L98.49-17.5Q98.49-13 98.99-10.08 99.49-7.15 100.39-5.5 101.29-3.85 102.41-3.18 103.54-2.5 104.74-2.5ZM125.99 0L121.49 0 121.49-35 126.49-35 136.74-10.25 136.99-10.25 136.99-35 141.49-35 141.49 0 136.49 0 126.24-24.75 125.99-24.75 125.99 0ZM157.98 0L153.48 0 153.48-31.5 145.48-31.5 145.48-35 165.98-35 165.98-31.5 157.98-31.5 157.98 0ZM174.48 0L169.98 0 169.98-34.5Q171.88-35.05 173.81-35.27 175.73-35.5 177.98-35.5L177.98-35.5Q181.98-35.5 184.41-34.38 186.83-33.25 187.91-30.63 188.98-28 188.98-23.5L188.98-23.5Q188.98-20.15 188.41-17.93 187.83-15.7 186.73-14.43 185.63-13.15 183.98-12.5L183.98-12.5 189.98 0 184.98 0 179.48-11.5 174.48-11.5 174.48 0ZM174.48-32.25L174.48-15 177.98-15Q181.38-15 182.93-16.82 184.48-18.65 184.48-23.5L184.48-23.5Q184.48-26.9 183.81-28.8 183.13-30.7 181.68-31.48 180.23-32.25 177.98-32.25L177.98-32.25 174.48-32.25ZM204.98 0.5L204.98 0.5Q201.63 0.5 199.2-1.07 196.78-2.65 195.5-6.58 194.23-10.5 194.23-17.5L194.23-17.5Q194.23-24.5 195.5-28.43 196.78-32.35 199.2-33.93 201.63-35.5 204.98-35.5L204.98-35.5Q208.38-35.5 210.78-33.93 213.18-32.35 214.45-28.43 215.73-24.5 215.73-17.5L215.73-17.5Q215.73-10.5 214.45-6.58 213.18-2.65 210.78-1.07 208.38 0.5 204.98 0.5ZM204.98-2.5L204.98-2.5Q206.18-2.5 207.3-3.18 208.43-3.85 209.33-5.5 210.23-7.15 210.73-10.08 211.23-13 211.23-17.5L211.23-17.5Q211.23-22 210.73-24.93 210.23-27.85 209.33-29.5 208.43-31.15 207.3-31.83 206.18-32.5 204.98-32.5L204.98-32.5Q203.78-32.5 202.65-31.83 201.53-31.15 200.63-29.5 199.73-27.85 199.23-24.93 198.73-22 198.73-17.5L198.73-17.5Q198.73-13 199.23-10.08 199.73-7.15 200.63-5.5 201.53-3.85 202.65-3.18 203.78-2.5 204.98-2.5ZM238.73 0L221.73 0 221.73-35 226.23-35 226.23-3.5 238.73-3.5 238.73 0ZM259.72 0L255.22 0 255.22-34.5Q257.12-35.05 259.05-35.27 260.97-35.5 263.22-35.5L263.22-35.5Q267.22-35.5 269.65-34.35 272.07-33.2 273.15-30.48 274.22-27.75 274.22-23L274.22-23Q274.22-18.15 273.2-15.35 272.17-12.55 270.07-11.4 267.97-10.25 264.72-10.25L264.72-10.25Q263.62-10.25 262.15-10.4 260.67-10.55 259.72-10.75L259.72-10.75 259.72 0ZM259.72-32.25L259.72-13.75 263.22-13.75Q265.47-13.75 266.92-14.55 268.37-15.35 269.05-17.38 269.72-19.4 269.72-23L269.72-23Q269.72-26.65 269.05-28.65 268.37-30.65 266.92-31.45 265.47-32.25 263.22-32.25L263.22-32.25 259.72-32.25ZM280.22 0L275.72 0 284.22-35 290.72-35 299.22 0 294.72 0 292.47-9 282.47-9 280.22 0ZM287.37-30L283.22-12.5 291.72-12.5 287.57-30 287.37-30ZM308.22 0L303.72 0 303.72-35 308.72-35 318.97-10.25 319.22-10.25 319.22-35 323.72-35 323.72 0 318.72 0 308.47-24.75 308.22-24.75 308.22 0ZM347.71 0L330.71 0 330.71-35 347.71-35 347.71-31.5 335.21-31.5 335.21-20 346.21-20 346.21-16.5 335.21-16.5 335.21-3.5 347.71-3.5 347.71 0ZM370.21 0L353.21 0 353.21-35 357.71-35 357.71-3.5 370.21-3.5 370.21 0Z" opacity="1" transform="matrix(1,0,0,1,0,0)" fill="#ffffff" class="undefined-text-1" data-fill-palette-color="secondary" id="text-1"></path>
                              </svg>
                           </g>
                        </svg>
                     </g>
                  </svg>
               </g>
            </svg>
         </g>
         <g>
            <svg viewBox="0 0 166.1889687141072 168.3006938788322" height="168.3006938788322" width="166.1889687141072">
               <g>
                  <svg xmlns="http://www.w3.org/2000/svg" xmlns:xlink="http://www.w3.org/1999/xlink" version="1.1" x="0" y="0" viewBox="1.5440011024475098 0 97.58499908447266 98.82498931884766" enable-background="new 0 0 100 100" xml:space="preserve" height="168.3006938788322" width="166.1889687141072" class="icon-icon-0" data-fill-palette-color="accent" id="icon-0">
                     <path d="M95.267 21.241c2.133 0 3.862-1.729 3.862-3.862s-1.729-3.862-3.862-3.862c-1.828 0-3.353 1.275-3.752 2.982l-19.04 3.862c-0.917-1.805-2.638-3.127-4.693-3.498l-0.3-8.391c1.576-0.673 2.683-2.235 2.683-4.059C70.164 1.976 68.188 0 65.75 0c-2.437 0-4.414 1.976-4.414 4.414 0 2.086 1.451 3.822 3.396 4.283l0.295 8.255c-1.637 0.404-3.031 1.415-3.929 2.786l-15.608-9.439c0.073-0.296 0.123-0.602 0.123-0.92 0-2.134-1.729-3.862-3.862-3.862-2.132 0-3.862 1.728-3.862 3.862s1.729 3.862 3.862 3.862c0.805 0 1.552-0.248 2.17-0.669l16.183 9.789c-0.048 0.319-0.08 0.644-0.08 0.976 0 0.963 0.212 1.875 0.583 2.699L36.021 50.564c-1.135-0.928-2.584-1.486-4.165-1.486-1.343 0-2.59 0.404-3.631 1.094L16.558 38.505c0.616-0.875 0.985-1.937 0.985-3.088 0-2.971-2.408-5.379-5.379-5.379-2.971 0-5.379 2.408-5.379 5.379 0 2.971 2.409 5.379 5.379 5.379 0.813 0 1.577-0.194 2.268-0.518l11.865 11.866c-0.646 1.019-1.025 2.223-1.025 3.518 0 0.497 0.06 0.979 0.164 1.444l-16.813 5.65c-0.692-1.042-1.873-1.729-3.217-1.729-2.133 0-3.862 1.729-3.862 3.862 0 2.133 1.729 3.86 3.862 3.86 1.934 0 3.521-1.425 3.803-3.28l17.398-5.846c0.998 1.32 2.479 2.249 4.183 2.527l-0.003 9.885c-1.973 0.439-3.45 2.195-3.45 4.301 0 2.438 1.976 4.413 4.414 4.413s4.414-1.976 4.414-4.413c0-1.798-1.078-3.338-2.62-4.025l0.004-10.294c1.898-0.505 3.455-1.832 4.271-3.58l22.252 4.481C60.039 63.152 60 63.383 60 63.625c0 2.83 2.295 5.125 5.125 5.125 0.374 0 0.736-0.045 1.087-0.121l3.639 8.99c-1.05 0.836-1.737 2.107-1.737 3.555 0 0.74 0.193 1.43 0.508 2.047l-7.385 7.743c-0.033-0.013-0.062-0.034-0.097-0.046-2.006-0.723-4.219 0.32-4.94 2.326-0.721 2.006 0.32 4.218 2.326 4.94 2.008 0.722 4.219-0.321 4.941-2.327 0.372-1.035 0.268-2.121-0.189-3.035l7.281-7.637c0.633 0.333 1.342 0.538 2.105 0.538 1.195 0 2.273-0.47 3.086-1.224l13.693 9.205c-0.138 0.396-0.228 0.815-0.228 1.261 0 2.133 1.729 3.86 3.86 3.86 2.133 0 3.862-1.729 3.862-3.86 0-2.134-1.729-3.862-3.862-3.862-0.668 0-1.289 0.186-1.838 0.486l-14.119-9.491c0.062-0.299 0.097-0.608 0.097-0.926 0-2.515-2.038-4.552-4.552-4.552-0.08 0-0.153 0.019-0.231 0.022l-3.754-9.337c0.966-0.932 1.571-2.234 1.571-3.682 0-2.83-2.295-5.125-5.125-5.125-1.594 0-3.001 0.743-3.94 1.886l-22.749-4.652c0-0.024 0.003-0.047 0.003-0.071 0-1.056-0.254-2.05-0.696-2.934l24.501-24.472c1.162 1.031 2.688 1.663 4.363 1.663 1.354 0 2.61-0.41 3.656-1.11l12.703 12.703c-0.246 0.55-0.391 1.156-0.391 1.797 0 2.439 1.977 4.414 4.414 4.414s4.413-1.975 4.413-4.414c0-2.438-1.976-4.414-4.413-4.414-0.787 0-1.516 0.223-2.154 0.584L72.183 26.826c0.635-1.013 1.008-2.207 1.008-3.49 0-0.103-0.011-0.202-0.016-0.304L91.9 19.235C92.558 20.426 93.811 21.241 95.267 21.241z" fill="#ffffff" data-fill-palette-color="accent"></path>
                  </svg>
               </g>
            </svg>
         </g>
      </svg>
   </g>
</svg>