
<svg xmlns="http://www.w3.org/2000/svg" version="1.1" xmlns:xlink="http://www.w3.org/1999/xlink" xmlns:svgjs="http://svgjs.com/svgjs"  width="60" height="60" x="0" y="0" viewBox="0 0 511.752 511.752" style="enable-background:new 0 0 512 512" xml:space="preserve" class=""><g><circle cx="259.591" cy="313.634" r="146.092" style="" fill="#ffffff" data-original="#ffffff" class=""></circle><path d="M302.682 453.262c59.65-18.388 103.001-73.944 103.001-139.628 0-80.684-65.407-146.092-146.092-146.092s-146.092 65.407-146.092 146.092c0 65.435 43.022 120.819 102.322 139.418" style="stroke-width:20;stroke-linecap:round;stroke-linejoin:round;stroke-miterlimit:10;" fill="none" stroke="#454444" stroke-width="20" stroke-linecap="round" stroke-linejoin="round" stroke-miterlimit="10" data-original="#000000" class=""></path><circle cx="259.563" cy="79.839" r="39.802" style="" fill="#12d19d" data-original="#ff5c7d" class=""></circle><circle cx="461.95" cy="430.663" r="39.802" style="" fill="#12d19d" data-original="#ff5c7d" class=""></circle><circle cx="49.802" cy="431.913" r="39.802" style="" fill="#12d19d" data-original="#ff5c7d" class=""></circle><circle cx="259.563" cy="79.839" r="39.802" style="stroke-width:20;stroke-linecap:round;stroke-linejoin:round;stroke-miterlimit:10;" fill="none" stroke="#454444" stroke-width="20" stroke-linecap="round" stroke-linejoin="round" stroke-miterlimit="10" data-original="#000000" class=""></circle><circle cx="461.95" cy="430.663" r="39.802" style="stroke-width:20;stroke-linecap:round;stroke-linejoin:round;stroke-miterlimit:10;" fill="none" stroke="#454444" stroke-width="20" stroke-linecap="round" stroke-linejoin="round" stroke-miterlimit="10" data-original="#000000" class=""></circle><circle cx="49.802" cy="431.913" r="39.802" style="stroke-width:20;stroke-linecap:round;stroke-linejoin:round;stroke-miterlimit:10;" fill="none" stroke="#454444" stroke-width="20" stroke-linecap="round" stroke-linejoin="round" stroke-miterlimit="10" data-original="#000000" class=""></circle><path d="m259.591 167.542-.083-47.902M133.033 386.654l-47.697 27.538M385.983 386.654l41.523 23.973" style="stroke-width:20;stroke-linecap:round;stroke-linejoin:round;stroke-miterlimit:10;" fill="none" stroke="#454444" stroke-width="20" stroke-linecap="round" stroke-linejoin="round" stroke-miterlimit="10" data-original="#000000" class=""></path><path d="M187.84 268.555v81.348l71.751 35.091v-81.348zM331.342 268.555v81.348l-71.751 35.091v-81.348z" style="" fill="#12d120" data-original="#e0a083" class=""></path><path d="m187.84 268.555 71.751 35.091 71.751-35.091-71.751-34.522z" style="" fill="#36e543" data-original="#eab7a2" class=""></path><path d="M187.84 268.555v81.348l71.751 35.091v-81.348zM331.342 268.555v81.348l-71.751 35.091v-81.348z" style="stroke-width:20;stroke-linecap:round;stroke-linejoin:round;stroke-miterlimit:10;" fill="none" stroke="#454444" stroke-width="20" stroke-linecap="round" stroke-linejoin="round" stroke-miterlimit="10" data-original="#000000" class=""></path><path d="m187.84 268.555 71.751 35.091 71.751-35.091-71.751-34.522zM259.591 459.725h0" style="stroke-width:20;stroke-linecap:round;stroke-linejoin:round;stroke-miterlimit:10;" fill="none" stroke="#454444" stroke-width="20" stroke-linecap="round" stroke-linejoin="round" stroke-miterlimit="10" data-original="#000000" class=""></path></g></svg>