<svg xmlns="http://www.w3.org/2000/svg" version="1.1" xmlns:xlink="http://www.w3.org/1999/xlink" xmlns:svgjs="http://svgjs.com/svgjs" width="64" height="64" x="0" y="0" viewBox="0 0 64 64" style="enable-background:new 0 0 512 512" xml:space="preserve" class=""><g><g id="rounter-wifi-internet-network-world"><rect fill="#2488ff" height="12" rx="2" width="40" x="3" y="49" data-original="#2488ff" class=""></rect><path d="m41 49h-1v4a6.018 6.018 0 0 1 -6 6h-31a2.006 2.006 0 0 0 2 2h36a2.006 2.006 0 0 0 2-2v-8a2.006 2.006 0 0 0 -2-2z" fill="#006df0" data-original="#006df0" class=""></path><path d="m19 52h14v6h-14z" fill="#ffcd00" data-original="#ffcd00"></path><path d="m13 46a1 1 0 0 0 -1-1h-2a1 1 0 0 0 -1 1v3h4z" fill="#ed1c24" data-original="#ed1c24"></path><path d="m30.538 34.78a20.489 20.489 0 0 0 -5.146 2.708 19.952 19.952 0 0 0 15.608 7.512c-4.494 0-8.406-4.125-10.462-10.22z" fill="#003f8a" data-original="#003f8a"></path><path d="m29 25h-8a19.9 19.9 0 0 0 4.392 12.488 20.489 20.489 0 0 1 5.146-2.708 30.776 30.776 0 0 1 -1.538-9.78z" fill="#00479b" data-original="#00479b"></path><path d="m51.462 34.78a20.489 20.489 0 0 1 5.146 2.708 19.9 19.9 0 0 0 4.392-12.488h-8a30.776 30.776 0 0 1 -1.538 9.78z" fill="#006df0" data-original="#006df0" class=""></path><path d="m51.462 15.22a20.489 20.489 0 0 0 5.146-2.708 19.952 19.952 0 0 0 -15.608-7.512c4.494 0 8.406 4.125 10.462 10.22z" fill="#57a4ff" data-original="#57a4ff"></path><path d="m30.538 15.22a20.489 20.489 0 0 1 -5.146-2.708 19.9 19.9 0 0 0 -4.392 12.488h8a30.776 30.776 0 0 1 1.538-9.78z" fill="#004fac" data-original="#004fac" class=""></path><path d="m51.462 15.22a30.776 30.776 0 0 1 1.538 9.78h8a19.9 19.9 0 0 0 -4.392-12.488 20.489 20.489 0 0 1 -5.146 2.708z" fill="#2488ff" data-original="#2488ff" class=""></path><path d="m41 5a19.952 19.952 0 0 0 -15.608 7.512 20.489 20.489 0 0 0 5.146 2.708c2.056-6.095 5.968-10.22 10.462-10.22z" fill="#005ece" data-original="#005ece" class=""></path><path d="m41 45a19.952 19.952 0 0 0 15.608-7.512 20.489 20.489 0 0 0 -5.146-2.708c-2.056 6.095-5.968 10.22-10.462 10.22z" fill="#005ece" data-original="#005ece" class=""></path><circle cx="11" cy="25" fill="#ed1c24" r="2" data-original="#ed1c24"></circle><path d="m30.538 15.22a30.435 30.435 0 0 0 10.462 1.78v-12c-4.494 0-8.406 4.125-10.462 10.22z" fill="#006df0" data-original="#006df0" class=""></path><path d="m41 25h12a30.776 30.776 0 0 0 -1.538-9.78 30.435 30.435 0 0 1 -10.462 1.78z" fill="#006df0" data-original="#006df0" class=""></path><path d="m41 33a30.44 30.44 0 0 1 10.462 1.78 30.776 30.776 0 0 0 1.538-9.78h-12z" fill="#005ece" data-original="#005ece" class=""></path><path d="m51.462 34.78a30.44 30.44 0 0 0 -10.462-1.78v12c4.494 0 8.406-4.125 10.462-10.22z" fill="#004fac" data-original="#004fac" class=""></path><path d="m51.462 15.22c-2.056-6.095-5.968-10.22-10.462-10.22v12a30.435 30.435 0 0 0 10.462-1.78z" fill="#2488ff" data-original="#2488ff" class=""></path><path d="m30.538 34.78c2.056 6.095 5.968 10.22 10.462 10.22v-12a30.44 30.44 0 0 0 -10.462 1.78z" fill="#00479b" data-original="#00479b"></path><path d="m41 17a30.435 30.435 0 0 1 -10.462-1.78 30.776 30.776 0 0 0 -1.538 9.78h12z" fill="#005ece" data-original="#005ece" class=""></path><path d="m29 25a30.776 30.776 0 0 0 1.538 9.78 30.44 30.44 0 0 1 10.462-1.78v-8z" fill="#004fac" data-original="#004fac" class=""></path><g fill="#231f20"><path d="m3.222 13.222a11.012 11.012 0 0 1 15.556 0 1 1 0 1 0 1.414-1.414 13.011 13.011 0 0 0 -18.384 0 1 1 0 1 0 1.414 1.414z" fill="#231f20" data-original="#231f20" class=""></path><path d="m7.464 19.464a1 1 0 1 0 1.414 1.414 3 3 0 0 1 4.244 0 1 1 0 1 0 1.414-1.414 5.006 5.006 0 0 0 -7.072 0z" fill="#231f20" data-original="#231f20" class=""></path><path d="m16.657 17.343a1 1 0 0 0 .707-1.707 9.01 9.01 0 0 0 -12.728 0 1 1 0 0 0 1.414 1.414 7.009 7.009 0 0 1 9.9 0 .993.993 0 0 0 .707.293z" fill="#231f20" data-original="#231f20" class=""></path><path d="m41 48h-27v-2a2.006 2.006 0 0 0 -2-2v-16.18a3 3 0 1 0 -2 0v16.18a2.006 2.006 0 0 0 -2 2v2h-3a3.009 3.009 0 0 0 -3 3v8a3.009 3.009 0 0 0 3 3h36a3.009 3.009 0 0 0 3-3v-8a3.009 3.009 0 0 0 -3-3zm-30-24a1 1 0 1 1 -1 1 1 1 0 0 1 1-1zm-1 22h2v2h-2zm32 13a1 1 0 0 1 -1 1h-36a1 1 0 0 1 -1-1v-8a1 1 0 0 1 1-1h36a1 1 0 0 1 1 1z" fill="#231f20" data-original="#231f20" class=""></path><path d="m33 51h-14a1 1 0 0 0 -1 1v6a1 1 0 0 0 1 1h14a1 1 0 0 0 1-1v-6a1 1 0 0 0 -1-1zm-1 6h-12v-4h12z" fill="#231f20" data-original="#231f20" class=""></path><path d="m7 53a1 1 0 0 0 -1 1v2a1 1 0 0 0 2 0v-2a1 1 0 0 0 -1-1z" fill="#231f20" data-original="#231f20" class=""></path><path d="m11 53a1 1 0 0 0 -1 1v2a1 1 0 0 0 2 0v-2a1 1 0 0 0 -1-1z" fill="#231f20" data-original="#231f20" class=""></path><path d="m15 53a1 1 0 0 0 -1 1v2a1 1 0 0 0 2 0v-2a1 1 0 0 0 -1-1z" fill="#231f20" data-original="#231f20" class=""></path><path d="m39 52h-2a1 1 0 0 0 0 2h2a1 1 0 0 0 0-2z" fill="#231f20" data-original="#231f20" class=""></path><path d="m39 56h-2a1 1 0 0 0 0 2h2a1 1 0 0 0 0-2z" fill="#231f20" data-original="#231f20" class=""></path><path d="m41 4a21 21 0 1 0 21 21 21.023 21.023 0 0 0 -21-21zm1 13.966a31.625 31.625 0 0 0 8.821-1.475 30.239 30.239 0 0 1 1.15 7.509h-9.971zm0-2v-9.878c3.425.536 6.4 3.793 8.194 8.509a29.63 29.63 0 0 1 -8.194 1.37zm-2-9.878v9.879a29.63 29.63 0 0 1 -8.194-1.37c1.794-4.716 4.769-7.973 8.194-8.509zm0 11.878v6.034h-9.971a30.239 30.239 0 0 1 1.15-7.509 31.625 31.625 0 0 0 8.821 1.475zm-11.969 6.034h-5.98a18.857 18.857 0 0 1 3.582-10.128 21.431 21.431 0 0 0 3.7 1.941 31.52 31.52 0 0 0 -1.302 8.187zm0 2a31.52 31.52 0 0 0 1.3 8.187 21.431 21.431 0 0 0 -3.695 1.941 18.857 18.857 0 0 1 -3.585-10.128zm2 0h9.969v6.034a31.625 31.625 0 0 0 -8.821 1.475 30.239 30.239 0 0 1 -1.15-7.509zm9.969 8.033v9.879c-3.425-.536-6.4-3.793-8.194-8.509a29.63 29.63 0 0 1 8.194-1.37zm2 9.879v-9.879a29.63 29.63 0 0 1 8.194 1.37c-1.794 4.716-4.769 7.973-8.194 8.509zm0-11.878v-6.034h9.971a30.239 30.239 0 0 1 -1.15 7.509 31.625 31.625 0 0 0 -8.821-1.475zm11.969-6.034h5.98a18.857 18.857 0 0 1 -3.582 10.128 21.431 21.431 0 0 0 -3.695-1.941 31.52 31.52 0 0 0 1.297-8.187zm0-2a31.52 31.52 0 0 0 -1.3-8.187 21.431 21.431 0 0 0 3.7-1.941 18.857 18.857 0 0 1 3.58 10.128zm1.131-11.687a19.567 19.567 0 0 1 -3.08 1.608 19.753 19.753 0 0 0 -3.99-6.556 19.062 19.062 0 0 1 7.07 4.948zm-21.133-4.948a19.753 19.753 0 0 0 -3.99 6.556 19.567 19.567 0 0 1 -3.08-1.608 19.062 19.062 0 0 1 7.07-4.948zm-7.067 30.322a19.567 19.567 0 0 1 3.08-1.608 19.753 19.753 0 0 0 3.99 6.556 19.062 19.062 0 0 1 -7.07-4.948zm21.136 4.948a19.753 19.753 0 0 0 3.99-6.556 19.567 19.567 0 0 1 3.08 1.608 19.062 19.062 0 0 1 -7.073 4.948z" fill="#231f20" data-original="#231f20" class=""></path></g></g></g></svg>