<svg xmlns="http://www.w3.org/2000/svg" version="1.1" xmlns:xlink="http://www.w3.org/1999/xlink" xmlns:svgjs="http://svgjs.com/svgjs" width="42" height="42" x="0" y="0" viewBox="0 0 512 512" style="enable-background:new 0 0 512 512" xml:space="preserve" class=""><g><g id="flat"><path d="m24 296h464v136h-464z" fill="#607d8b" data-original="#607d8b"></path><path d="m488 296h-464l4.8-24 9.6-48 3.2-16 9.6-48 4.8-24h400l4.8 24 9.6 48 3.2 16 9.6 48z" fill="#7496a6" data-original="#7496a6" class=""></path><path d="m392 328v56h16v16h32v-16h16v-56z" fill="#3d5966" data-original="#3d5966"></path><path d="m296 328v56h16v16h32v-16h16v-56z" fill="#3d5966" data-original="#3d5966"></path><path d="m200 328v56h16v16h32v-16h16v-56z" fill="#3d5966" data-original="#3d5966"></path><path d="m104 328v56h16v16h32v-16h16v-56z" fill="#3d5966" data-original="#3d5966"></path><path d="m56 320h16v16h-16z" fill="#f5be41" data-original="#f5be41"></path><path d="m56 352h16v16h-16z" fill="#f5be41" data-original="#f5be41"></path><path d="m56 384h16v16h-16z" fill="#f5be41" data-original="#f5be41"></path><g fill="#607d8b"><path d="m72 224v16h-36.8l3.2-16z" fill="#607d8b" data-original="#607d8b"></path><path d="m64 256v16h-35.2l3.2-16z" fill="#607d8b" data-original="#607d8b"></path><path d="m483.2 272h-35.2v-16h32z" fill="#607d8b" data-original="#607d8b"></path><path d="m80 192v16h-38.4l3.2-16z" fill="#607d8b" data-original="#607d8b"></path><path d="m88 160v16h-40l3.2-16z" fill="#607d8b" data-original="#607d8b"></path><path d="m476.8 240h-36.8v-16h33.6z" fill="#607d8b" data-original="#607d8b"></path><path d="m470.4 208h-38.4v-16h35.2z" fill="#607d8b" data-original="#607d8b"></path><path d="m464 176h-40v-16h36.8z" fill="#607d8b" data-original="#607d8b"></path></g></g></g></svg>