<svg xmlns="http://www.w3.org/2000/svg" version="1.1" xmlns:xlink="http://www.w3.org/1999/xlink" xmlns:svgjs="http://svgjs.com/svgjs" width="32" height="32" x="0" y="0" viewBox="0 0 512 512" style="enable-background:new 0 0 512 512" xml:space="preserve" class=""><g><g><path d="m447.614 191.614c0 189.771-167.768 305.69-189.34 319.71-1.386.901-3.162.901-4.548 0-21.571-14.021-189.34-129.939-189.34-319.71 0-105.826 85.789-191.614 191.614-191.614s191.614 85.788 191.614 191.614z" fill="#795548" data-original="#ee6161" class=""></path><path d="m256 0c-5.203 0-10.355.215-15.453.622 98.598 7.869 176.161 90.369 176.161 190.992 0 167.439-130.605 277.383-176.161 310.572 6.076 4.427 10.64 7.488 13.179 9.139 1.386.901 3.162.901 4.548 0 21.571-14.021 189.34-129.94 189.34-319.71 0-105.827-85.789-191.615-191.614-191.615z" fill="#976857" data-original="#e94444" class=""></path><path d="m379.62 198.31c0 39.21-18.26 74.16-46.74 96.8 0 0 0 0-.01.01-.82.36-36.65 16.26-76.87 16.26s-76.05-15.9-76.87-16.26c-.01-.01-.01-.01-.01-.01-28.48-22.64-46.74-57.59-46.74-96.8 0-68.27 55.35-123.62 123.62-123.62s123.62 55.35 123.62 123.62z" fill="#d4f2f6" data-original="#d4f2f6" class=""></path><path d="m379.62 198.31c0 39.21-18.26 74.16-46.74 96.8 0 0 0 0-.01.01-.66.29-24.19 10.73-54.42 14.73 41.56-19.91 70.27-62.37 70.27-111.54 0-63.04-47.19-115.06-108.17-122.66 5.06-.63 10.22-.96 15.45-.96 68.27 0 123.62 55.35 123.62 123.62z" fill="#a6e7f0" data-original="#a6e7f0" class=""></path><path d="m285.494 255.916c-1.556 1.999-10.559 12.342-29.494 12.342s-27.939-10.343-29.494-12.342l4.172-2.132c4.162-2.122 6.779-6.398 6.779-11.074v-18.44h37.087v18.44c0 4.677 2.617 8.952 6.779 11.074z" fill="#ffb09e" data-original="#ffb09e" class=""></path><path d="m332.882 295.106c-21.098 16.802-47.821 26.826-76.882 26.826s-55.784-10.024-76.882-26.826c1.556-10.106 7.871-18.986 17.153-23.735l34.408-17.585s7.489 10.776 25.322 10.776 25.322-10.776 25.322-10.776l34.408 17.585c9.281 4.748 15.596 13.628 17.151 23.735z" fill="#5f99d7" data-original="#5f99d7" class=""></path><g><path d="m302.358 312.948v-12.928c0-12.084-6.768-23.148-17.534-28.649l-16.905-8.643c9.313-3.07 13.403-8.942 13.403-8.942l34.408 17.585c9.282 4.749 15.597 13.629 17.153 23.735-9.2 7.324-19.461 13.361-30.525 17.842z" fill="#3c87d0" data-original="#3c87d0" class=""></path></g><path d="m304.934 176.94c0 30.723-14.462 60.556-48.934 60.556s-48.934-29.833-48.934-60.556 21.908-50.703 48.934-50.703 48.934 19.98 48.934 50.703z" fill="#ffcebf" data-original="#ffcebf" class=""></path><path d="m307.07 188.554c-.086 2.588-2.508 4.306-4.727 3.343-4.266-1.857-10.193-6.244-11.639-16.493-2.304-16.481-23.408-11.839-34.704-11.839s-32.4-4.643-34.704 11.839c-1.447 10.248-7.374 14.636-11.639 16.493-2.219.963-4.641-.755-4.727-3.343 0 0-2.84-14.38-2.465-23.897 1.908-48.688 53.535-47.69 53.535-47.69s51.627-.998 53.535 47.69c.375 9.517-2.465 23.897-2.465 23.897z" fill="#bb5d4c" data-original="#bb5d4c" class=""></path><g><path d="m309.535 164.657c-1.908-48.688-53.535-47.69-53.535-47.69s-6.747-.129-15.453 2.004c15.201 3.725 36.364 14.36 38.024 44.636 6.139 1.179 11.084 4.298 12.133 11.798 1.447 10.248 7.374 14.636 11.639 16.493 2.219.963 4.641-.755 4.727-3.343 0-.001 2.84-14.381 2.465-23.898z" fill="#a44f3e" data-original="#a44f3e" class=""></path></g></g></g></svg>